<svg width="1440" height="1024" viewBox="0 0 1440 1024" fill="none" xmlns="http://www.w3.org/2000/svg">
<g id="Desktop - 1" clip-path="url(#clip0)">
<rect width="1440" height="1024" fill="white"/>
<path id="Vector 1" d="M1215.23 101.899C1301.91 114.537 1465.28 93.9314 1436.69 93.9314V-33H1021V-2.22876C1043.24 72.2266 1131.87 89.7446 1215.23 101.899Z" fill="#E5916D" fill-opacity="0.3" stroke="#E5916D" stroke-opacity="0.3"/>
<rect id="Rectangle 2" opacity="0.5" x="0.5" y="-0.5" width="1439" height="804" fill="#E6916D" stroke="#E5916D"/>
<path id="Vector 8" d="M129 566C133.4 504 44 459.833 2.00001 452.5C-6.66665 532.667 -18.8 694.1 2.00001 698.5C22.8 702.9 75.5 661.333 96 648.5C105.167 636.5 124.6 628 129 566Z" fill="#E5916D" fill-opacity="0.3" stroke="#E5916D" stroke-opacity="0.3"/>
<path id="Vector 9" d="M1329.64 422.417C1328.74 484.566 1420.49 523.625 1462.83 528.58C1466.97 448.053 1469.99 286.192 1448.97 282.971C1427.96 279.75 1377.68 324.22 1357.94 338.188C1349.46 350.686 1330.54 360.267 1329.64 422.417Z" fill="#E5916D" fill-opacity="0.3" stroke="#E5916D" stroke-opacity="0.3"/>
<g id="wave 1">
<path id="Vector" d="M0 792L80 765.3C160 739 320 685 480 690.7C640 696 800 760 960 765.3C1120 771 1280 717 1360 690.7L1440 664V920H1360C1280 920 1120 920 960 920C800 920 640 920 480 920C320 920 160 920 80 920H0V792Z" fill="white"/>
<path id="Vector_2" opacity="0.5" d="M0 778L80 751.3C160 725 320 671 480 676.7C640 682 800 746 960 751.3C1120 757 1280 703 1360 676.7L1440 650V906H1360C1280 906 1120 906 960 906C800 906 640 906 480 906C320 906 160 906 80 906H0V778Z" fill="white"/>
<path id="Vector_3" opacity="0.2" d="M0 761L80 734.3C160 708 320 654 480 659.7C640 665 800 729 960 734.3C1120 740 1280 686 1360 659.7L1440 633V889H1360C1280 889 1120 889 960 889C800 889 640 889 480 889C320 889 160 889 80 889H0V761Z" fill="white"/>
</g>
</g>
<defs>
<clipPath id="clip0">
<rect width="1440" height="1024" fill="white"/>
</clipPath>
</defs>
</svg>
