<svg width="1440" height="320" viewBox="0 0 1440 320" fill="none" xmlns="http://www.w3.org/2000/svg">
<g id="wave 1">
<path id="Vector" d="M0 192L80 165.3C160 139 320 85 480 90.7C640 96 800 160 960 165.3C1120 171 1280 117 1360 90.7L1440 64V320H1360C1280 320 1120 320 960 320C800 320 640 320 480 320C320 320 160 320 80 320H0V192Z" fill="white"/>
<path id="Vector_2" opacity="0.5" d="M0 178L80 151.3C160 125 320 71 480 76.7C640 82 800 146 960 151.3C1120 157 1280 103 1360 76.7L1440 50V306H1360C1280 306 1120 306 960 306C800 306 640 306 480 306C320 306 160 306 80 306H0V178Z" fill="white"/>
<path id="Vector_3" opacity="0.2" d="M0 161L80 134.3C160 108 320 54 480 59.7C640 65 800 129 960 134.3C1120 140 1280 86 1360 59.7L1440 33V289H1360C1280 289 1120 289 960 289C800 289 640 289 480 289C320 289 160 289 80 289H0V161Z" fill="white"/>
</g>
</svg>
