<?xml version="1.0" encoding="utf-8"?>
<!-- Generator: Adobe Illustrator 17.0.0, SVG Export Plug-In . SVG Version: 6.00 Build 0)  -->
<!DOCTYPE svg PUBLIC "-//W3C//DTD SVG 1.1//EN" "http://www.w3.org/Graphics/SVG/1.1/DTD/svg11.dtd">
<svg version="1.1" id="Layer_1" xmlns="http://www.w3.org/2000/svg" xmlns:xlink="http://www.w3.org/1999/xlink" x="0px" y="0px"
	 width="533px" height="533px" viewBox="0 0 533 533" enable-background="new 0 0 533 533" xml:space="preserve">
<g id="Layer_2_1_">
</g>
<g id="Layer_1_1_" display="none">
	
		<image display="inline" overflow="visible" enable-background="new    " width="80" height="57" xlink:href="4404930A.jpeg"  transform="matrix(0.75 0 0 0.75 18.7036 28.9201)">
	</image>
</g>
<g enable-background="new    ">
	<path d="M130.823,397.745l-22.817,61.619h-7.95l-22.344-61.619h8.036l17.059,48.857c0.543,1.575,0.959,3.395,1.246,5.457h0.172
		c0.229-1.719,0.702-3.566,1.418-5.543l17.403-48.771H130.823z"/>
	<path d="M190.397,460.396c-8.738,0-15.734-2.879-20.991-8.637c-5.257-5.758-7.885-13.249-7.885-22.474
		c0-9.911,2.678-17.817,8.036-23.72c5.356-5.9,12.647-8.852,21.872-8.852c8.508,0,15.362,2.865,20.561,8.594
		c5.2,5.73,7.799,13.221,7.799,22.474c0,10.055-2.664,18.005-7.993,23.849C206.468,457.474,199.335,460.396,190.397,460.396z
		 M190.913,403.245c-6.474,0-11.731,2.335-15.77,7.004c-4.039,4.67-6.059,10.801-6.059,18.392c0,7.592,1.969,13.701,5.908,18.327
		c3.938,4.626,9.073,6.939,15.405,6.939c6.76,0,12.089-2.206,15.985-6.617c3.896-4.411,5.844-10.585,5.844-18.521
		c0-8.136-1.891-14.423-5.672-18.864C202.772,405.466,197.558,403.245,190.913,403.245z"/>
	<path d="M290.277,459.364h-31.97v-61.619h7.219v55.088h24.751V459.364z"/>
	<path d="M376.363,459.364h-7.992l-6.531-17.274h-26.126l-6.145,17.274h-8.036l23.634-61.619h7.477L376.363,459.364z
		 M359.476,435.602l-9.668-26.255c-0.315-0.859-0.63-2.234-0.945-4.125h-0.172c-0.286,1.748-0.616,3.123-0.988,4.125l-9.582,26.255
		H359.476z"/>
	<path d="M454.372,459.364h-8.81l-14.18-23.591c-0.43-0.716-0.902-1.732-1.418-3.051h-0.172c-0.287,0.659-0.773,1.676-1.461,3.051
		l-14.61,23.591h-8.852l20.626-30.981l-18.993-30.638h8.852l12.591,21.657c0.83,1.433,1.561,2.864,2.191,4.297h0.172
		c0.916-1.891,1.719-3.38,2.406-4.469l13.105-21.485h8.294l-19.38,30.552L454.372,459.364z"/>
</g>
<g>
	<g>
		<defs>
			<rect id="SVGID_1_" x="81.908" y="52.251" width="369.185" height="309.751"/>
		</defs>
		<clipPath id="SVGID_2_">
			<use xlink:href="#SVGID_1_"  overflow="visible"/>
		</clipPath>
		<rect x="81.908" y="52.251" clip-path="url(#SVGID_2_)" fill="none" width="369.185" height="309.751"/>
	</g>
	<g>
		<defs>
			<rect id="SVGID_3_" x="81.908" y="52.251" width="369.185" height="309.751"/>
		</defs>
		<clipPath id="SVGID_4_">
			<use xlink:href="#SVGID_3_"  overflow="visible"/>
		</clipPath>
		<polygon clip-path="url(#SVGID_4_)" fill="#CFC4BF" points="216.779,52.251 319.65,52.251 268.215,123.116 		"/>
	</g>
	<g>
		<defs>
			<rect id="SVGID_5_" x="81.908" y="52.251" width="369.185" height="309.751"/>
		</defs>
		<clipPath id="SVGID_6_">
			<use xlink:href="#SVGID_5_"  overflow="visible"/>
		</clipPath>
		<rect x="81.908" y="52.251" clip-path="url(#SVGID_6_)" fill="none" width="369.185" height="309.751"/>
	</g>
	<g>
		<defs>
			<rect id="SVGID_7_" x="81.908" y="52.251" width="369.185" height="309.751"/>
		</defs>
		<clipPath id="SVGID_8_">
			<use xlink:href="#SVGID_7_"  overflow="visible"/>
		</clipPath>
		<polygon clip-path="url(#SVGID_8_)" fill="#F5E1DA" points="144.77,112.366 81.908,52.251 81.908,421.441 144.973,354.429 
			144.77,354.429 		"/>
	</g>
	<g>
		<defs>
			<rect id="SVGID_9_" x="81.908" y="52.251" width="369.185" height="309.751"/>
		</defs>
		<clipPath id="SVGID_10_">
			<use xlink:href="#SVGID_9_"  overflow="visible"/>
		</clipPath>
		<rect x="81.908" y="52.251" clip-path="url(#SVGID_10_)" fill="none" width="369.185" height="309.751"/>
	</g>
	<g>
		<defs>
			<rect id="SVGID_11_" x="81.908" y="52.251" width="369.185" height="309.751"/>
		</defs>
		<clipPath id="SVGID_12_">
			<use xlink:href="#SVGID_11_"  overflow="visible"/>
		</clipPath>
		<polygon clip-path="url(#SVGID_12_)" fill="#B6ACA8" points="264.786,227.131 236.208,199.804 236.208,257.492 		"/>
	</g>
	<g>
		<defs>
			<rect id="SVGID_13_" x="81.908" y="52.251" width="369.185" height="309.751"/>
		</defs>
		<clipPath id="SVGID_14_">
			<use xlink:href="#SVGID_13_"  overflow="visible"/>
		</clipPath>
		<rect x="81.908" y="52.251" clip-path="url(#SVGID_14_)" fill="none" width="369.185" height="309.751"/>
	</g>
	<g>
		<defs>
			<rect id="SVGID_15_" x="81.908" y="52.251" width="369.185" height="309.751"/>
		</defs>
		<clipPath id="SVGID_16_">
			<use xlink:href="#SVGID_15_"  overflow="visible"/>
		</clipPath>
		<polygon clip-path="url(#SVGID_16_)" fill="#D7C7C0" points="152.773,120.018 152.773,346.143 228.21,265.991 228.21,192.152 		
			"/>
	</g>
	<g>
		<defs>
			<rect id="SVGID_17_" x="81.908" y="52.251" width="369.185" height="309.751"/>
		</defs>
		<clipPath id="SVGID_18_">
			<use xlink:href="#SVGID_17_"  overflow="visible"/>
		</clipPath>
		<rect x="81.908" y="52.251" clip-path="url(#SVGID_18_)" fill="none" width="369.185" height="309.751"/>
	</g>
	<g>
		<defs>
			<rect id="SVGID_19_" x="81.908" y="52.251" width="369.185" height="309.751"/>
		</defs>
		<clipPath id="SVGID_20_">
			<use xlink:href="#SVGID_19_"  overflow="visible"/>
		</clipPath>
		<polygon clip-path="url(#SVGID_20_)" fill="#CFC4BF" points="144.77,362.002 228.21,362.002 228.21,277.631 		"/>
	</g>
	<g>
		<defs>
			<rect id="SVGID_21_" x="81.908" y="52.251" width="369.185" height="309.751"/>
		</defs>
		<clipPath id="SVGID_22_">
			<use xlink:href="#SVGID_21_"  overflow="visible"/>
		</clipPath>
		<rect x="81.908" y="52.251" clip-path="url(#SVGID_22_)" fill="none" width="369.185" height="309.751"/>
	</g>
	<g>
		<defs>
			<rect id="SVGID_23_" x="81.908" y="52.251" width="369.185" height="309.751"/>
		</defs>
		<clipPath id="SVGID_24_">
			<use xlink:href="#SVGID_23_"  overflow="visible"/>
		</clipPath>
		<polygon clip-path="url(#SVGID_24_)" fill="#B5B5B5" points="236.208,269.539 236.208,362.002 297.931,362.002 297.931,207.127 		
			"/>
	</g>
	<g>
		<defs>
			<rect id="SVGID_25_" x="81.908" y="52.251" width="369.185" height="309.751"/>
		</defs>
		<clipPath id="SVGID_26_">
			<use xlink:href="#SVGID_25_"  overflow="visible"/>
		</clipPath>
		<rect x="81.908" y="52.251" clip-path="url(#SVGID_26_)" fill="none" width="369.185" height="309.751"/>
	</g>
	<g>
		<defs>
			<rect id="SVGID_27_" x="81.908" y="52.251" width="369.185" height="309.751"/>
		</defs>
		<clipPath id="SVGID_28_">
			<use xlink:href="#SVGID_27_"  overflow="visible"/>
		</clipPath>
		<polygon opacity="0.5" clip-path="url(#SVGID_28_)" fill="#D3D3D3" enable-background="new    " points="451.094,52.251 
			387.087,116.975 387.087,362.002 451.094,362.002 		"/>
	</g>
	<g>
		<defs>
			<rect id="SVGID_29_" x="81.908" y="52.251" width="369.185" height="309.751"/>
		</defs>
		<clipPath id="SVGID_30_">
			<use xlink:href="#SVGID_29_"  overflow="visible"/>
		</clipPath>
		<polygon clip-path="url(#SVGID_30_)" fill="#D3D3D3" points="305.935,199.04 305.935,362.002 379.083,362.002 379.083,125.066 		
			"/>
	</g>
</g>
<g enable-background="new    ">
	<path stroke="#000000" stroke-width="2" stroke-miterlimit="10" d="M130.823,397.745l-22.817,61.619h-7.95l-22.344-61.619h8.036
		l17.059,48.857c0.543,1.575,0.959,3.395,1.246,5.457h0.172c0.229-1.719,0.702-3.566,1.418-5.543l17.403-48.771H130.823z"/>
	<path stroke="#000000" stroke-width="2" stroke-miterlimit="10" d="M190.397,460.396c-8.738,0-15.734-2.879-20.991-8.637
		c-5.257-5.758-7.885-13.249-7.885-22.474c0-9.911,2.678-17.817,8.036-23.72c5.356-5.9,12.647-8.852,21.872-8.852
		c8.508,0,15.362,2.865,20.561,8.594c5.2,5.73,7.799,13.221,7.799,22.474c0,10.055-2.664,18.005-7.993,23.849
		C206.468,457.474,199.335,460.396,190.397,460.396z M190.913,403.245c-6.474,0-11.731,2.335-15.77,7.004
		c-4.039,4.67-6.059,10.801-6.059,18.392c0,7.592,1.969,13.701,5.908,18.327c3.938,4.626,9.073,6.939,15.405,6.939
		c6.76,0,12.089-2.206,15.985-6.617c3.896-4.411,5.844-10.585,5.844-18.521c0-8.136-1.891-14.423-5.672-18.864
		C202.772,405.466,197.558,403.245,190.913,403.245z"/>
	<path stroke="#000000" stroke-width="2" stroke-miterlimit="10" d="M290.277,459.364h-31.97v-61.619h7.219v55.088h24.751V459.364z"
		/>
	<path stroke="#000000" stroke-width="2" stroke-miterlimit="10" d="M376.363,459.364h-7.992l-6.531-17.274h-26.126l-6.145,17.274
		h-8.036l23.634-61.619h7.477L376.363,459.364z M359.476,435.602l-9.668-26.255c-0.315-0.859-0.63-2.234-0.945-4.125h-0.172
		c-0.286,1.748-0.616,3.123-0.988,4.125l-9.582,26.255H359.476z"/>
	<path stroke="#000000" stroke-width="2" stroke-miterlimit="10" d="M454.372,459.364h-8.81l-14.18-23.591
		c-0.43-0.716-0.902-1.732-1.418-3.051h-0.172c-0.287,0.659-0.773,1.676-1.461,3.051l-14.61,23.591h-8.852l20.626-30.981
		l-18.993-30.638h8.852l12.591,21.657c0.83,1.433,1.561,2.864,2.191,4.297h0.172c0.916-1.891,1.719-3.38,2.406-4.469l13.105-21.485
		h8.294l-19.38,30.552L454.372,459.364z"/>
</g>
</svg>
