<?xml version="1.0" encoding="utf-8"?>
<!-- Generator: Adobe Illustrator 17.0.0, SVG Export Plug-In . SVG Version: 6.00 Build 0)  -->
<!DOCTYPE svg PUBLIC "-//W3C//DTD SVG 1.1//EN" "http://www.w3.org/Graphics/SVG/1.1/DTD/svg11.dtd">
<svg version="1.1" id="Layer_1" xmlns="http://www.w3.org/2000/svg" xmlns:xlink="http://www.w3.org/1999/xlink" x="0px" y="0px"
	 width="229.958px" height="229.958px" viewBox="0 0 229.958 229.958" style="enable-background:new 0 0 229.958 229.958;"
	 xml:space="preserve">
<style type="text/css">
	.st0{fill:#FFFFFF;stroke:#D1D3D4;stroke-width:20;stroke-miterlimit:10;}
	.st1{fill:#7483B9;}
</style>
<circle class="st0" cx="114.979" cy="114.979" r="104.979"/>
<g>
	<path class="st1" d="M187.834,123.694c0.134-0.163,0.251-0.336,0.377-0.504c0.142-0.191,0.29-0.377,0.422-0.575
		c0.136-0.202,0.253-0.413,0.377-0.62c0.105-0.177,0.217-0.35,0.314-0.532c0.114-0.214,0.211-0.433,0.313-0.651
		c0.089-0.188,0.183-0.373,0.263-0.567c0.089-0.216,0.162-0.435,0.239-0.654c0.073-0.204,0.152-0.405,0.215-0.614
		c0.068-0.225,0.119-0.454,0.175-0.682c0.051-0.207,0.11-0.411,0.152-0.621c0.054-0.272,0.088-0.546,0.125-0.819
		c0.023-0.171,0.057-0.338,0.074-0.511c0.09-0.907,0.09-1.821,0-2.728c-0.017-0.173-0.05-0.34-0.074-0.511
		c-0.038-0.274-0.071-0.548-0.125-0.819c-0.042-0.211-0.1-0.414-0.152-0.621c-0.057-0.228-0.107-0.457-0.175-0.682
		c-0.063-0.208-0.142-0.41-0.215-0.614c-0.078-0.219-0.15-0.439-0.239-0.654c-0.08-0.193-0.174-0.378-0.263-0.567
		c-0.102-0.218-0.199-0.437-0.313-0.651c-0.098-0.182-0.209-0.355-0.314-0.532c-0.123-0.208-0.241-0.418-0.377-0.621
		c-0.132-0.198-0.28-0.384-0.422-0.574c-0.126-0.168-0.243-0.341-0.377-0.504c-0.288-0.351-0.591-0.688-0.911-1.008l-43.714-43.715
		c-5.369-5.369-14.073-5.369-19.442,0c-5.369,5.368-5.369,14.073,0,19.442l20.246,20.247H52.757
		c-7.593,0-13.748,6.155-13.748,13.748c0,7.592,6.155,13.748,13.748,13.748h91.256l-20.246,20.246
		c-5.369,5.369-5.369,14.073,0,19.442c2.685,2.684,6.202,4.027,9.721,4.027s7.037-1.342,9.721-4.027l43.714-43.714
		C187.243,124.381,187.547,124.044,187.834,123.694z"/>
</g>
</svg>
