<?xml version="1.0" encoding="utf-8"?>
<!-- Generator: Adobe Illustrator 17.0.0, SVG Export Plug-In . SVG Version: 6.00 Build 0)  -->
<!DOCTYPE svg PUBLIC "-//W3C//DTD SVG 1.1//EN" "http://www.w3.org/Graphics/SVG/1.1/DTD/svg11.dtd">
<svg version="1.1" id="Layer_1" xmlns="http://www.w3.org/2000/svg" xmlns:xlink="http://www.w3.org/1999/xlink" x="0px" y="0px"
	 width="164.875px" height="164.891px" viewBox="0 0 164.875 164.891" style="enable-background:new 0 0 164.875 164.891;"
	 xml:space="preserve">
<style type="text/css">
	.st0{fill:url(#SVGID_1_);}
	.st1{fill:#FFFFFF;}
</style>
<g>
	<radialGradient id="SVGID_1_" cx="82.4373" cy="82.4457" r="82.4415" gradientUnits="userSpaceOnUse">
		<stop  offset="0.2854" style="stop-color:#DD94C0"/>
		<stop  offset="0.6223" style="stop-color:#965EA7"/>
		<stop  offset="1" style="stop-color:#694FA0"/>
	</radialGradient>
	<path class="st0" d="M164.875,82.446c0,45.564-36.941,82.446-82.467,82.446S0,128.01,0,82.446C0,36.917,36.882,0,82.408,0
		S164.875,36.917,164.875,82.446z"/>
	<g>
		<path class="st1" d="M131.298,70.651c-5.457-22.822-25.147-38.381-48.889-38.727c-3.131,0.153-6.512,0.382-9.585,1
			c-33.29,6.644-50.424,43.412-34.327,73.031c0.575,0.846,0.575,1.577,0.461,2.498c-2.344,7.644-4.495,15.519-6.569,23.281
			c-0.346,1.345-0.346,1.345,0.941,1c8.125-2.231,16.174-4.264,24.281-6.302c0.71-0.192,1.21-0.192,1.806,0.118
			c10.411,5.299,21.399,6.759,32.924,4.646C119.83,125.859,137.868,97.851,131.298,70.651z M89.459,123.127
			c-2.4,0.464-4.65,0.653-5.783,0.499c-8.855,0-15.982-1.959-22.609-5.798c-0.941-0.579-1.652-0.732-2.556-0.425
			c-4.533,1.118-8.951,2.345-13.446,3.498c-0.922,0.267-1.018,0.114-0.807-0.846c1.191-4.111,2.305-8.336,3.612-12.64
			c0.288-1.153,0.211-2.034-0.519-2.994c-9.086-14.753-8.682-33.003,1.479-46.682c10.584-14.136,25.126-20.017,42.395-16.327
			c17.038,3.572,27.952,14.675,31.831,31.618C128.568,96.234,112.895,119.327,89.459,123.127z"/>
		<path class="st1" d="M95.53,105.956c-1.75,0.153-3.518-0.153-5.205-0.692c-11.47-3.34-20.152-10.371-27.125-19.938
			c-2.593-3.533-5.072-7.337-5.82-11.794c-1.057-5.185,0.575-9.835,4.514-13.408c1.307-1.231,5.129-1.806,6.685-1
			c0.499,0.421,0.787,0.846,1.114,1.345c1.421,3.572,2.939,6.877,4.38,10.256c0.211,0.692,0.173,1.42-0.211,2.113
			c-0.769,1.577-1.939,2.844-3.074,4.15c-0.961,0.806-0.961,1.766-0.308,2.766c4.111,6.837,9.663,11.754,17.114,14.678
			c1.078,0.461,1.904,0.267,2.577-0.579c1.287-1.499,2.553-3.112,3.745-4.685c0.728-1,1.707-1.153,2.785-0.692
			c2.458,1.113,4.878,2.266,7.223,3.34c0.653,0.346,1.113,0.579,1.688,0.771c2.478,1.267,2.478,1.42,2.191,4.072
			c-0.327,5.264-4.343,7.915-8.934,9.182C97.623,106.109,96.623,106.109,95.53,105.956z"/>
	</g>
</g>
</svg>
