<?xml version="1.0" encoding="utf-8"?>
<!-- Generator: Adobe Illustrator 17.0.0, SVG Export Plug-In . SVG Version: 6.00 Build 0)  -->
<!DOCTYPE svg PUBLIC "-//W3C//DTD SVG 1.1//EN" "http://www.w3.org/Graphics/SVG/1.1/DTD/svg11.dtd">
<svg version="1.1" id="Layer_1" xmlns="http://www.w3.org/2000/svg" xmlns:xlink="http://www.w3.org/1999/xlink" x="0px" y="0px"
	 width="164.854px" height="164.817px" viewBox="0 0 164.854 164.817" style="enable-background:new 0 0 164.854 164.817;"
	 xml:space="preserve">
<style type="text/css">
	.st0{fill:url(#SVGID_1_);}
	.st1{fill:#FFFFFF;}
</style>
<g>
	<radialGradient id="SVGID_1_" cx="82.4269" cy="82.4086" r="82.4178" gradientUnits="userSpaceOnUse">
		<stop  offset="0.2854" style="stop-color:#DD94C0"/>
		<stop  offset="0.6223" style="stop-color:#965EA7"/>
		<stop  offset="1" style="stop-color:#694FA0"/>
	</radialGradient>
	<path class="st0" d="M164.854,82.332c0,43.184-33.175,78.682-75.3,82.065c-2.324,0.421-4.687,0.421-7.011,0.421
		c-6.166,0-12.141-0.614-17.865-1.884C27.662,154.597,0,121.633,0,82.332C0,36.807,37.036,0,82.543,0
		C128.069,0,164.854,36.806,164.854,82.332z"/>
	<g>
		<path class="st1" d="M91.897,65.081c1.268-1.495,3.822-2.573,7.453-2.573c3.381,0,7.434,0.461,11.257,1.538l3.207-17.29
			c-6.589-2.305-13.389-2.959-20.42-2.959s-12.563,1.078-17.019,3.612c-4.476,2.537-7.454,5.342-9.144,9.414
			c-1.71,3.572-2.555,9.757-2.555,17.405v6.798H51.039v19.785h13.639v62.123c5.724,1.271,11.699,1.884,17.865,1.884
			c2.324,0,4.687,0,7.011-0.421V100.81h18.076V81.025H89.554v-6.377C89.554,69.77,90.207,66.773,91.897,65.081z"/>
	</g>
</g>
</svg>
