<?xml version="1.0" encoding="utf-8"?>
<!-- Generator: Adobe Illustrator 17.0.0, SVG Export Plug-In . SVG Version: 6.00 Build 0)  -->
<!DOCTYPE svg PUBLIC "-//W3C//DTD SVG 1.1//EN" "http://www.w3.org/Graphics/SVG/1.1/DTD/svg11.dtd">
<svg version="1.1" id="Layer_1" xmlns="http://www.w3.org/2000/svg" xmlns:xlink="http://www.w3.org/1999/xlink" x="0px" y="0px"
	 width="164.853px" height="164.932px" viewBox="0 0 164.853 164.932" style="enable-background:new 0 0 164.853 164.932;"
	 xml:space="preserve">
<style type="text/css">
	.st0{fill:url(#SVGID_1_);}
	.st1{fill:#FFFFFF;}
</style>
<g>
	<radialGradient id="SVGID_1_" cx="82.4263" cy="82.466" r="82.4462" gradientUnits="userSpaceOnUse">
		<stop  offset="0.2854" style="stop-color:#DD94C0"/>
		<stop  offset="0.6223" style="stop-color:#965EA7"/>
		<stop  offset="1" style="stop-color:#694FA0"/>
	</radialGradient>
	<path class="st0" d="M164.853,82.485c0,45.525-36.881,82.447-82.446,82.447C36.921,164.932,0,128.011,0,82.485
		C0,36.961,36.921,0,82.407,0C127.971,0,164.853,36.96,164.853,82.485z"/>
	<g>
		<path class="st1" d="M115.216,37.995c-21.822,0-43.719,0-65.541,0c-7.802,0-11.834,4.072-11.834,11.912
			c0,10.795,0,21.629,0,32.578c0,10.834,0,21.861,0,32.81c0,7.53,4.151,11.676,11.448,11.676c22.054,0,43.952,0,65.927,0
			c7.608,0,11.794-4.146,11.794-11.794c0-21.858,0-43.64,0-65.541C127.011,42.067,122.825,37.995,115.216,37.995z M107.993,48.023
			c8.835,0,8.835,0,8.835,8.835c0,8.643,0,8.643-8.682,8.643c-8.757,0-8.757,0-8.757-8.757
			C99.39,48.023,99.39,48.023,107.993,48.023z M82.485,65.194c9.296,0,17.286,8.029,17.133,17.29
			c-0.075,9.489-7.989,17.365-17.44,17.211c-9.374-0.232-17.29-8.108-17.058-17.443C65.348,72.918,73.185,65.194,82.485,65.194z
			 M116.83,111.53c-0.075,4.146-1.153,5.339-5.299,5.339c-9.721,0-19.442,0-29.164,0c-9.643,0-19.36,0-29.081,0
			c-4.072,0-5.224-1.192-5.224-5.339c0-10.681,0.04-21.594-0.154-32.425c0-3.077,0.846-3.768,3.687-3.651
			c4.072,0.267,4.151,0.114,3.69,4.072c-1.577,13.793,7.951,27.121,21.511,29.773c13.985,2.69,27.971-5.684,31.811-19.092
			c1.153-4.19,1.499-8.643,0.617-12.794c-0.307-1.538,0.075-1.846,1.46-1.846c6.145-0.461,6.145-0.574,6.145,5.803
			C116.83,91.321,116.83,101.463,116.83,111.53z"/>
	</g>
</g>
</svg>
