<?xml version="1.0" encoding="utf-8"?>
<!-- Generator: Adobe Illustrator 17.0.0, SVG Export Plug-In . SVG Version: 6.00 Build 0)  -->
<!DOCTYPE svg PUBLIC "-//W3C//DTD SVG 1.1//EN" "http://www.w3.org/Graphics/SVG/1.1/DTD/svg11.dtd">
<svg version="1.1" id="Layer_1" xmlns="http://www.w3.org/2000/svg" xmlns:xlink="http://www.w3.org/1999/xlink" x="0px" y="0px"
	 width="164.853px" height="164.892px" viewBox="0 0 164.853 164.892" style="enable-background:new 0 0 164.853 164.892;"
	 xml:space="preserve">
<style type="text/css">
	.st0{fill:url(#SVGID_1_);}
	.st1{fill:#FFFFFF;}
</style>
<g>
	<radialGradient id="SVGID_1_" cx="82.4263" cy="82.4462" r="82.4362" gradientUnits="userSpaceOnUse">
		<stop  offset="0.2854" style="stop-color:#DD94C0"/>
		<stop  offset="0.6223" style="stop-color:#965EA7"/>
		<stop  offset="1" style="stop-color:#694FA0"/>
	</radialGradient>
	<path class="st0" d="M164.853,82.485c0,45.486-36.921,82.407-82.407,82.407C36.881,164.892,0,127.971,0,82.485
		C0,36.881,36.881,0,82.446,0C127.932,0,164.853,36.881,164.853,82.485z"/>
	<g>
		<path class="st1" d="M32.539,116.024c7.84,0.499,15.445-0.692,22.593-3.918c3.226-1.381,6.145-3.112,9.064-5.417
			c-3.418-0.114-6.53-0.881-9.376-2.345c-4.838-2.42-8.258-6.337-10.335-11.522c-0.461-1.153-0.461-1.153,0.811-1.078
			c3.455,0.307,5.992,0.232,7.951-0.535c-1.881-0.653-3.651-1-5.11-1.999c-7.223-3.957-11.063-10.182-11.716-18.443
			c-0.078-0.96,0.193-1.073,1.074-0.653c2.538,1.385,5.303,2.038,8.49,2.345c-1.381-1.267-2.573-2.266-3.647-3.344
			c-5.996-6.452-7.416-16.712-3.423-24.548c0.539-1.038,0.732-1.038,1.463-0.229C50.48,55.978,63.042,63.044,78.18,65.428
			c1.538,0.307,3.226,0.346,4.803,0.614c1.074,0.193,1.188-0.307,1.035-1.153c-1.574-9.104,2.692-18.093,10.759-22.668
			c8.222-4.8,18.899-3.266,25.509,3.191c0.768,0.653,1.499,0.846,2.385,0.574c4.072-0.881,7.872-2.42,11.448-4.453
			c0.307-0.078,0.535-0.272,0.92-0.579c-1.538,5.11-4.611,8.875-9.142,11.948c4.186-0.421,7.951-1.612,11.68-3.073
			c0.075,0.539-0.31,0.846-0.539,1.267c-2.538,3.458-5.496,6.57-8.989,9.182c-0.653,0.539-0.806,0.924-0.806,1.77
			c0.267,15.866-4.803,30.001-14.945,42.295c-9.528,11.22-21.709,17.944-36.19,20.324c-15.37,2.384-29.816-0.229-43.106-8.411
			C32.849,116.142,32.656,116.024,32.539,116.024z"/>
	</g>
</g>
</svg>
